<?xml version="1.0" encoding="UTF-8"?>
<svg version="1.1" xmlns="http://www.w3.org/2000/svg" width="144" height="144">
<path d="M0 0 C14.86960201 12.82760972 24.80694902 29.88768923 26.79736328 49.55664062 C28.1050779 68.43036508 23.07341902 87.85514386 10.54394531 102.37915039 C-2.85714258 116.99619404 -20.11704323 126.45415046 -40.1171875 127.5546875 C-61.42108523 127.81265599 -79.9830337 121.44499903 -95.67578125 106.6640625 C-109.32936727 92.33108456 -115.82108469 74.04577951 -115.72851562 54.47436523 C-115.21806337 34.49346779 -106.59184697 16.39326195 -92.18359375 2.66796875 C-66.34709128 -19.0332295 -26.82232187 -21.68013761 0 0 Z " fill="#46A1DA" transform="translate(116.42578125,15.6484375)"/>
<path d="M0 0 C15.26943225 12.34208559 25.51907164 29.18802742 28.24755859 48.70410156 C30.14498722 67.45418397 25.50247995 85.91512796 14.39599609 101.26269531 C12.74755859 103.20410156 12.74755859 103.20410156 10.24755859 105.70410156 C6.19270848 104.07682219 3.40442905 101.20115205 0.35302734 98.18066406 C-0.19858566 97.63807953 -0.75019867 97.095495 -1.31852722 96.53646851 C-2.47848632 95.39097946 -3.63568631 94.24269056 -4.7902832 93.09179688 C-6.56422703 91.32981112 -8.35597176 89.5873374 -10.14892578 87.84472656 C-11.27441855 86.72869138 -12.39880697 85.61154116 -13.52197266 84.49316406 C-14.06143021 83.97323883 -14.60088776 83.4533136 -15.1566925 82.91763306 C-16.63452148 81.42138672 -16.63452148 81.42138672 -18.75244141 78.70410156 C-18.65380859 76.50878906 -18.65380859 76.50878906 -17.75244141 74.70410156 C-17.35927734 73.82496094 -16.96611328 72.94582031 -16.56103516 72.04003906 C-16.10857422 71.06292969 -15.65611328 70.08582031 -15.18994141 69.07910156 C-11.83577913 61.07772314 -11.53966692 54.07618847 -14.66259766 45.93066406 C-18.92129055 37.2301087 -24.92457931 32.48940231 -33.75244141 28.70410156 C-41.50593835 26.30942454 -49.38697589 27.60285292 -56.75244141 30.70410156 C-59.28041434 32.22088532 -61.44673967 33.84951538 -63.75244141 35.70410156 C-67.85353027 34.08254132 -70.58392307 31.12733126 -73.61181641 28.04003906 C-74.16105774 27.48796783 -74.71029907 26.93589661 -75.27618408 26.36709595 C-77.02303434 24.60908341 -78.76278742 22.84423266 -80.50244141 21.07910156 C-81.68817732 19.88333076 -82.87437021 18.68801291 -84.06103516 17.49316406 C-86.96349226 14.56869903 -89.85960551 11.63808283 -92.75244141 8.70410156 C-88.0887843 -1.16611929 -75.69995541 -6.40144604 -65.84863281 -9.98925781 C-43.88184453 -17.25008282 -18.76264924 -13.87463669 0 0 Z " fill="#7FC244" transform="translate(114.75244140625,14.2958984375)"/>
<path d="M0 0 C6.90274361 5.53337342 10.91899129 12.80103448 12.03515625 21.546875 C12.43666365 28.01217364 10.63968677 32.82138157 7.94140625 38.6484375 C6.90405539 40.96802204 6.09476773 42.80886611 5.75 45.3125 C7.61370482 47.62351706 9.42692954 49.57004874 11.55859375 51.609375 C12.45965599 52.49982513 12.45965599 52.49982513 13.37892151 53.40826416 C15.3037215 55.30503452 17.24515877 57.18371235 19.1875 59.0625 C20.49397052 60.34389897 21.79932431 61.62643761 23.10351562 62.91015625 C26.30619306 66.05765048 29.5239018 69.18902311 32.75 72.3125 C31.1 73.9625 29.45 75.6125 27.75 77.3125 C26.95827393 76.48935303 26.16654785 75.66620605 25.35083008 74.81811523 C22.41218997 71.77095534 19.45380097 68.74363139 16.48901367 65.72192383 C15.20813677 64.41085517 13.93269405 63.09445465 12.6628418 61.77270508 C10.83741168 59.87457138 8.99335122 57.99641728 7.14453125 56.12109375 C6.57974564 55.52534042 6.01496002 54.9295871 5.43305969 54.31578064 C3.64673165 52.45952244 3.64673165 52.45952244 0.75 50.3125 C-2.89420669 50.4133598 -5.70464726 51.87270684 -9 53.375 C-16.54851094 56.43460355 -23.09237919 55.97988524 -30.765625 53.40625 C-40.49895201 49.12113748 -45.39807206 41.66452132 -49.625 32.25 C-51.41835389 23.82123672 -50.21399969 15.73182617 -46.06640625 8.1484375 C-41.6071781 1.60486759 -34.88206106 -3.92874804 -27.1875 -6.125 C-16.6740576 -7.62692034 -8.90440756 -6.08891869 0 0 Z " fill="#47A1DA" transform="translate(91.25,47.6875)"/>
<path d="M0 0 C6.90274361 5.53337342 10.91899129 12.80103448 12.03515625 21.546875 C12.43666365 28.01217364 10.63968677 32.82138157 7.94140625 38.6484375 C6.90405539 40.96802204 6.09476773 42.80886611 5.75 45.3125 C7.61370482 47.62351706 9.42692954 49.57004874 11.55859375 51.609375 C12.45965599 52.49982513 12.45965599 52.49982513 13.37892151 53.40826416 C15.3037215 55.30503452 17.24515877 57.18371235 19.1875 59.0625 C20.49397052 60.34389897 21.79932431 61.62643761 23.10351562 62.91015625 C26.30619306 66.05765048 29.5239018 69.18902311 32.75 72.3125 C31.1 73.9625 29.45 75.6125 27.75 77.3125 C26.95827393 76.48935303 26.16654785 75.66620605 25.35083008 74.81811523 C22.41218997 71.77095534 19.45380097 68.74363139 16.48901367 65.72192383 C15.20813677 64.41085517 13.93269405 63.09445465 12.6628418 61.77270508 C10.83741168 59.87457138 8.99335122 57.99641728 7.14453125 56.12109375 C6.57974564 55.52534042 6.01496002 54.9295871 5.43305969 54.31578064 C3.64673165 52.45952244 3.64673165 52.45952244 0.75 50.3125 C-2.89420669 50.4133598 -5.70464726 51.87270684 -9 53.375 C-16.54851094 56.43460355 -23.09237919 55.97988524 -30.765625 53.40625 C-40.49895201 49.12113748 -45.39807206 41.66452132 -49.625 32.25 C-51.41835389 23.82123672 -50.21399969 15.73182617 -46.06640625 8.1484375 C-41.6071781 1.60486759 -34.88206106 -3.92874804 -27.1875 -6.125 C-16.6740576 -7.62692034 -8.90440756 -6.08891869 0 0 Z M-39.8046875 10.21484375 C-44.11572497 16.4716738 -43.93113651 22.9597187 -43.25 30.3125 C-41.54828682 37.48554415 -37.29682371 42.24750305 -31.25 46.3125 C-24.89439802 49.45353304 -17.46477465 49.31240149 -10.6484375 47.6953125 C-4.81910204 45.43168739 -0.61860551 41.55670027 2.75 36.3125 C5.50938054 29.55709347 5.97598285 22.03020617 4.1328125 14.9375 C1.38383269 8.70972274 -3.83588427 3.71172776 -10.109375 1.140625 C-22.60481865 -2.15419348 -31.62829722 0.65036861 -39.8046875 10.21484375 Z " fill="#F5FAFA" transform="translate(91.25,47.6875)"/>
<path d="M0 0 C0.66 0.33 1.32 0.66 2 1 C-1.33333333 4.33333333 -4.66666667 7.66666667 -8 11 C-8 7 -8 7 -6.25 5.078125 C-5.5075 4.47484375 -4.765 3.8715625 -4 3.25 C-3.2575 2.63640625 -2.515 2.0228125 -1.75 1.390625 C-1.1725 0.93171875 -0.595 0.4728125 0 0 Z " fill="#72BB65" transform="translate(31,13)"/>
</svg>
